<svg xmlns="http://www.w3.org/2000/svg" xmlns:xlink="http://www.w3.org/1999/xlink" width="19.484" height="22.23" viewBox="0 0 19.484 22.23">
  <defs>
    <clipPath id="clip-path">
      <rect id="Rectangle_54" data-name="Rectangle 54" width="19.484" height="22.23" fill="#fff"/>
    </clipPath>
  </defs>
  <g id="Group_91" data-name="Group 91" clip-path="url(#clip-path)">
    <path id="Path_128" data-name="Path 128" d="M16.8,2.695h-.672V1.684a1.68,1.68,0,1,0-3.359,0v1.01H6.719V1.684a1.68,1.68,0,1,0-3.359,0v1.01H2.688A2.694,2.694,0,0,0,0,5.389V19.536A2.7,2.7,0,0,0,2.688,22.23H16.8a2.694,2.694,0,0,0,2.688-2.695V5.389A2.693,2.693,0,0,0,16.8,2.695M2.352,7.073H17.133v12.8H2.352Z" transform="translate(0 0)" fill="#fff"/>
    <rect id="Rectangle_48" data-name="Rectangle 48" width="2.688" height="2.696" transform="translate(8.398 14.482)" fill="#fff"/>
    <rect id="Rectangle_49" data-name="Rectangle 49" width="2.688" height="2.695" transform="translate(4.031 9.768)" fill="#fff"/>
    <rect id="Rectangle_50" data-name="Rectangle 50" width="2.688" height="2.696" transform="translate(4.031 14.482)" fill="#fff"/>
    <rect id="Rectangle_51" data-name="Rectangle 51" width="2.687" height="2.695" transform="translate(12.766 9.768)" fill="#fff"/>
    <rect id="Rectangle_52" data-name="Rectangle 52" width="2.688" height="2.695" transform="translate(8.398 9.768)" fill="#fff"/>
    <rect id="Rectangle_53" data-name="Rectangle 53" width="2.687" height="2.696" transform="translate(12.766 14.482)" fill="#fff"/>
  </g>
</svg>
