<svg xmlns="http://www.w3.org/2000/svg" width="19.07" height="19.116" viewBox="0 0 19.07 19.116">
  <path id="phone" d="M1.282.707c.763-.765,3.07-.893,3.087-.488s2.077,4.891,2.1,5.3S5.107,7.3,4.7,7.7s2.692,3.9,2.75,3.967,3.559,3.157,3.958,2.757,1.779-1.782,2.181-1.764,4.88,2.082,5.284,2.1.276,2.329-.487,3.094c-.653.654-4.032,3.028-9.907-1.212A18.631,18.631,0,0,1,5.271,13.87l0,0,0,0,0,0,0,0a18.7,18.7,0,0,1-2.768-3.22C-1.739,4.748.63,1.361,1.282.707Z" transform="translate(-0.032 0.006)" fill="#fff"/>
</svg>
